<svg width="230" height="230" viewBox="0 0 280 280" fill="none" xmlns="http://www.w3.org/2000/svg">
<path d="M280 140C280 217.32 217.32 280 140 280C62.6801 280 0 217.32 0 140C0 62.6801 62.6801 0 140 0C217.32 0 280 62.6801 280 140Z" fill="#0CBFB4"/>
<path d="M76.6281 223.505L68.1247 233.99C67.3311 234.969 66.4237 235.675 65.4025 236.109C64.3688 236.558 63.3105 236.704 62.2277 236.547C61.1448 236.39 60.1374 235.933 59.2054 235.177L54.685 231.511L55.8566 230.067L60.3769 233.733C61.3245 234.501 62.3706 234.783 63.5152 234.578C64.6753 234.386 65.6837 233.762 66.5403 232.705L67.504 231.517C66.5496 231.773 65.6013 231.815 64.6592 231.643C63.7296 231.456 62.8765 231.047 62.0998 230.418C61.059 229.574 60.3285 228.569 59.9083 227.404C59.4882 226.24 59.4041 225.026 59.6561 223.762C59.9082 222.499 60.494 221.3 61.4136 220.166C62.3206 219.048 63.3521 218.236 64.5081 217.732C65.6922 217.224 66.8896 217.049 68.1005 217.207C69.3269 217.378 70.4605 217.885 71.5013 218.729C72.2935 219.372 72.871 220.136 73.2337 221.023C73.6245 221.906 73.7869 222.849 73.7209 223.851L75.0436 222.22L76.6281 223.505ZM63.2247 228.935C63.9704 229.54 64.7817 229.889 65.6588 229.982C66.5515 230.088 67.4317 229.939 68.2996 229.536C69.1675 229.132 69.9416 228.511 70.6219 227.672C71.3021 226.834 71.75 225.948 71.9655 225.015C72.181 224.083 72.1447 223.191 71.8568 222.339C71.5844 221.5 71.0754 220.779 70.3297 220.174C69.5996 219.582 68.796 219.239 67.9189 219.146C67.0419 219.053 66.1694 219.208 65.3014 219.611C64.4461 219.999 63.6784 220.612 62.9981 221.451C62.3052 222.306 61.8511 223.199 61.6356 224.131C61.4201 225.064 61.4486 225.95 61.721 226.789C61.9934 227.628 62.4946 228.343 63.2247 228.935Z" fill="#FFE9D0"/>
<path d="M71.7728 237.03L79.6335 225.397L81.3238 226.539L73.4631 238.172L71.7728 237.03ZM82.0072 223.706C81.626 223.448 81.3925 223.097 81.3065 222.653C81.2371 222.22 81.3311 221.813 81.5887 221.432C81.835 221.067 82.1665 220.844 82.583 220.764C83.0273 220.678 83.44 220.764 83.8212 221.021C84.1857 221.267 84.411 221.613 84.497 222.057C84.5942 222.485 84.514 222.889 84.2565 223.27C84.0101 223.635 83.6648 223.86 83.2205 223.946C82.7762 224.032 82.3717 223.952 82.0072 223.706Z" fill="#FFE9D0"/>
<path d="M92.2309 225.738C91.6295 225.38 91.0083 225.289 90.3675 225.466C89.7439 225.654 89.2377 226.074 88.8489 226.727L86.8998 230L89.6837 231.658L88.7322 233.256L85.9483 231.599L79.7173 242.064L77.9644 241.021L84.1954 230.555L82.6488 229.634L83.6003 228.036L85.1469 228.957L87.096 225.683C87.7611 224.566 88.6556 223.865 89.7797 223.58C90.9312 223.288 92.0654 223.474 93.1824 224.14L93.9042 224.569L92.9527 226.167L92.2309 225.738Z" fill="#FFE9D0"/>
<path d="M84.7073 244.856L90.3229 234.048L88.1932 232.942L89.0508 231.291L91.1805 232.398L93.3244 228.271L95.1346 229.212L92.9907 233.338L95.8658 234.832L95.0082 236.482L92.1332 234.989L86.5176 245.797L84.7073 244.856Z" fill="#FFE9D0"/>
<path d="M95.2848 250.411C94.03 249.887 93.0345 249.156 92.2985 248.22C91.5809 247.292 91.1774 246.235 91.0877 245.048L93.1232 244.923C93.1969 246.667 94.2303 247.955 96.2233 248.787C97.183 249.188 98.0497 249.344 98.8237 249.256C99.5976 249.167 100.139 248.754 100.447 248.016C100.763 247.259 100.74 246.589 100.378 246.004C100.034 245.426 99.248 244.816 98.0209 244.174C96.311 243.286 95.2034 242.357 94.6982 241.387C94.2115 240.425 94.1917 239.409 94.6389 238.339C95.14 237.139 95.9631 236.389 97.108 236.087C98.2529 235.785 99.582 235.95 101.095 236.582C103.66 237.654 104.98 239.397 105.055 241.813L103.019 241.938C103.014 241.068 102.78 240.331 102.318 239.726C101.874 239.129 101.181 238.634 100.24 238.24C99.2801 237.839 98.4687 237.706 97.8055 237.841C97.1608 237.984 96.7035 238.378 96.4336 239.024C96.1792 239.633 96.2386 240.243 96.6118 240.854C97.0112 241.454 97.8522 242.087 99.1346 242.753C100.715 243.587 101.764 244.502 102.28 245.498C102.822 246.483 102.869 247.511 102.422 248.581C102.06 249.448 101.498 250.092 100.738 250.511C99.9851 250.912 99.128 251.095 98.1665 251.062C97.205 251.029 96.2445 250.812 95.2848 250.411Z" fill="#FFE9D0"/>
<path d="M111.858 255.583L114.866 243.781L112.54 243.188L113 241.386L115.325 241.978L116.474 237.472L118.45 237.976L117.302 242.482L120.442 243.282L119.982 245.084L116.843 244.284L113.835 256.087L111.858 255.583Z" fill="#FFE9D0"/>
<path d="M127.747 243.981C128.717 244.121 129.579 244.448 130.333 244.961C131.107 245.477 131.676 246.156 132.039 246.996C132.422 247.84 132.538 248.786 132.386 249.835L131.042 259.129L129.023 258.837L130.239 250.434C130.637 247.683 129.608 246.129 127.154 245.774C125.729 245.568 124.587 245.918 123.728 246.825C122.87 247.731 122.317 249.035 122.071 250.738L121.066 257.685L119.047 257.393L122.165 235.838L124.184 236.13L122.741 246.106C123.345 245.284 124.067 244.691 124.908 244.328C125.771 243.948 126.718 243.832 127.747 243.981Z" fill="#FFE9D0"/>
<path d="M139.623 244.783C140.882 244.772 142.025 245.072 143.051 245.683C144.076 246.294 144.883 247.137 145.473 248.212C146.062 249.267 146.363 250.454 146.374 251.774C146.378 252.154 146.37 252.444 146.352 252.644L134.802 252.746C134.895 254.185 135.376 255.411 136.245 256.423C137.114 257.436 138.288 257.935 139.768 257.922C140.968 257.912 141.956 257.683 142.732 257.236C143.528 256.769 144.162 256.134 144.635 255.33L146.265 256.395C145.614 257.441 144.751 258.269 143.676 258.878C142.602 259.468 141.324 259.769 139.844 259.782C138.484 259.794 137.272 259.484 136.206 258.854C135.14 258.223 134.303 257.34 133.693 256.206C133.083 255.071 132.771 253.784 132.759 252.344C132.746 250.904 133.025 249.611 133.595 248.466C134.185 247.321 134.997 246.424 136.031 245.775C137.085 245.126 138.283 244.795 139.623 244.783ZM144.327 250.982C144.114 249.524 143.615 248.438 142.828 247.725C142.042 246.992 140.979 246.631 139.639 246.643C138.339 246.655 137.273 247.084 136.44 247.931C135.627 248.758 135.116 249.803 134.908 251.065L144.327 250.982Z" fill="#FFE9D0"/>
<path d="M156.491 243.732L158.391 243.458L153.739 264.376L151.72 264.667L153.099 258.679L145.356 245.337L147.464 245.033L153.728 255.89L156.491 243.732Z" fill="#FFE9D0"/>
<path d="M157.367 240.468C157.941 239.559 158.231 238.438 158.238 237.103C157.789 237.205 157.373 237.134 156.991 236.893C156.628 236.646 156.396 236.299 156.294 235.85C156.198 235.421 156.26 235.017 156.483 234.639C156.724 234.257 157.06 234.017 157.489 233.92C157.957 233.815 158.371 233.875 158.729 234.102C159.108 234.324 159.352 234.679 159.462 235.167C159.691 236.181 159.664 237.202 159.384 238.229C159.103 239.256 158.618 240.062 157.93 240.648L157.367 240.468Z" fill="#FFE9D0"/>
<path d="M167.521 255.53L161.767 234.523L163.735 233.984L169.489 254.991L167.521 255.53Z" fill="#FFE9D0"/>
<path d="M173.892 253.644L167.061 232.963L168.998 232.323L175.829 253.004L173.892 253.644Z" fill="#FFE9D0"/>
<path d="M185.659 249.16L176.807 229.259L178.671 228.43L187.523 248.33L185.659 249.16Z" fill="#FFE9D0"/>
<path d="M196.408 244.409C195.232 245.052 194.026 245.348 192.789 245.296C191.552 245.243 190.396 244.861 189.323 244.149C188.239 243.42 187.352 242.424 186.66 241.16C185.969 239.897 185.609 238.635 185.58 237.374C185.559 236.086 185.85 234.912 186.455 233.851C187.078 232.781 187.977 231.924 189.152 231.28C190.328 230.637 191.534 230.341 192.771 230.394C194.008 230.446 195.163 230.828 196.237 231.54C197.311 232.252 198.193 233.239 198.885 234.502C199.576 235.766 199.933 237.041 199.954 238.329C199.993 239.608 199.701 240.782 199.078 241.853C198.473 242.913 197.583 243.765 196.408 244.409ZM195.462 242.806C196.304 242.345 196.934 241.727 197.353 240.95C197.789 240.164 197.985 239.293 197.94 238.337C197.896 237.381 197.614 236.429 197.096 235.482C196.577 234.535 195.927 233.785 195.146 233.232C194.364 232.679 193.525 232.375 192.628 232.319C191.748 232.253 190.887 232.451 190.045 232.912C189.221 233.363 188.599 233.977 188.181 234.753C187.762 235.53 187.575 236.396 187.62 237.352C187.654 238.291 187.931 239.233 188.45 240.181C188.978 241.146 189.633 241.904 190.414 242.457C191.196 243.01 192.026 243.319 192.906 243.385C193.785 243.45 194.637 243.258 195.462 242.806Z" fill="#FFE9D0"/>
<path d="M203.449 222.812L205.152 221.635L208.943 236.083L207.092 237.363L194.937 228.699L196.689 227.487L206.834 234.879L203.449 222.812Z" fill="#FFE9D0"/>
<path d="M209.943 217.027C210.902 216.21 211.971 215.707 213.149 215.518C214.328 215.329 215.488 215.457 216.63 215.903C217.759 216.334 218.751 217.052 219.607 218.057C219.853 218.347 220.034 218.574 220.148 218.739L211.354 226.227C212.349 227.272 213.504 227.904 214.82 228.123C216.136 228.342 217.358 227.972 218.484 227.012C219.398 226.234 220.009 225.425 220.318 224.584C220.629 223.715 220.707 222.82 220.554 221.9L222.488 221.672C222.66 222.892 222.529 224.08 222.096 225.237C221.649 226.379 220.863 227.43 219.736 228.389C218.7 229.271 217.572 229.812 216.35 230.012C215.128 230.212 213.919 230.072 212.723 229.593C211.527 229.114 210.462 228.327 209.529 227.23C208.595 226.134 207.98 224.964 207.682 223.72C207.4 222.463 207.447 221.254 207.824 220.092C208.216 218.917 208.922 217.896 209.943 217.027ZM217.528 218.763C216.43 217.781 215.35 217.269 214.289 217.227C213.216 217.169 212.169 217.574 211.148 218.443C210.159 219.286 209.616 220.3 209.521 221.484C209.429 222.64 209.707 223.769 210.356 224.871L217.528 218.763Z" fill="#FFE9D0"/>
<path d="M193.083 194.432C193.083 201.277 187.048 207 179.528 207H99.4721C91.9515 207 85.9165 201.277 85.9165 194.432V136.765C85.9165 129.92 91.9515 124.197 99.4721 124.197H179.528C187.048 124.197 193.083 129.92 193.083 136.765V194.432Z" fill="#FDD888" stroke="black" stroke-width="2"/>
<path d="M204 126.589C204 133.435 197.965 139.158 190.444 139.158H88.5556C81.035 139.158 75 133.435 75 126.589C75 119.744 81.035 114.021 88.5556 114.021H190.444C197.965 114.021 204 119.744 204 126.589Z" fill="#FDD888" stroke="black" stroke-width="2"/>
<path d="M87 140H192V147H87V140Z" fill="#FCAB40"/>
<path d="M134.907 113.658C134.193 113.907 133.282 114.021 132.223 114.021H95.8337C93.6461 114.021 91.8232 113.294 90.9048 111.82C89.9695 110.319 90.202 108.421 91.3131 106.609L134.907 113.658ZM134.907 113.658C135.598 113.417 136.295 112.977 136.559 112.198C136.828 111.401 136.517 110.635 136.083 110.047C135.64 109.447 134.953 108.86 134.083 108.292C134.083 108.292 134.083 108.292 134.082 108.292L109.629 92.3339C108.766 91.7496 107.784 91.3455 106.748 91.1451C105.708 90.9442 104.635 90.952 103.6 91.1682C102.564 91.3844 101.585 91.8047 100.73 92.4047C99.8767 93.0028 99.1645 93.7669 98.6444 94.6496L91.3132 106.609L134.907 113.658ZM187.692 106.607L187.691 106.606L180.36 94.6493C179.839 93.7671 179.127 93.0035 178.274 92.4056C177.418 91.8061 176.44 91.386 175.404 91.1699C174.369 90.9537 173.296 90.9458 172.257 91.1464C171.221 91.3464 170.239 91.75 169.375 92.3337L144.918 108.292C144.918 108.292 144.918 108.292 144.918 108.292C144.048 108.86 143.36 109.447 142.918 110.047C142.483 110.635 142.173 111.401 142.442 112.198C142.705 112.977 143.402 113.417 144.094 113.658C144.808 113.907 145.719 114.021 146.778 114.021H183.167C185.355 114.021 187.177 113.294 188.096 111.82C189.032 110.319 188.801 108.42 187.692 106.607Z" fill="#DA2F47" stroke="black" stroke-width="2"/>
<path d="M135.861 100.452H143.139C145.791 100.452 148.321 101.435 150.176 103.164C152.029 104.891 153.055 107.218 153.055 109.628V207H125.944V109.628C125.944 107.218 126.971 104.891 128.824 103.164C130.679 101.435 133.209 100.452 135.861 100.452Z" fill="#DA2F47" stroke="black" stroke-width="2"/>
<path d="M242.535 143.089C239.338 134.584 228.949 138.386 228 142.638C226.701 138.136 216.562 134.784 213.465 143.089C210.019 152.344 226.801 160.649 228 162C229.199 160.899 245.981 152.194 242.535 143.089Z" fill="#F7A08E"/>
<path d="M65.5345 143.089C62.3379 134.584 51.949 138.386 51 142.638C49.7014 138.136 39.5622 134.784 36.4655 143.089C33.0191 152.344 49.8013 160.649 51 162C52.1987 160.899 68.9809 152.194 65.5345 143.089Z" fill="#F7A08E"/>
<path d="M42.8352 78.865C44.3971 79.0618 45.9023 79.6362 47.3508 80.5882C48.7993 81.5402 49.9237 82.694 50.724 84.0497C51.502 85.3907 51.9361 86.745 52.0265 88.1127C52.2371 90.8997 51.6906 93.2849 50.3871 95.2682L47.641 99.4465L51.4182 101.929C51.9307 102.266 52.3061 102.545 52.5442 102.765C52.7747 102.948 52.9985 103.239 53.2156 103.637C53.6122 104.344 53.3418 105.411 52.4045 106.837C51.3793 108.397 50.3665 109.04 49.3662 108.765C48.8995 108.65 48.2762 108.336 47.4962 107.824L28.9443 95.6308C28.4318 95.2939 28.0602 95.0338 27.8298 94.8504C27.5916 94.6301 27.364 94.3209 27.1469 93.9229C26.7503 93.2155 27.0206 92.1487 27.958 90.7225L32.6594 83.5691C33.9483 81.6081 35.9136 80.1714 38.5554 79.2592C39.8468 78.7995 41.2734 78.6681 42.8352 78.865ZM44.4925 91.3462C44.9319 90.6777 45.1188 89.8592 45.0533 88.8907C44.9878 87.9222 44.4648 87.1158 43.4842 86.4714C42.5037 85.8269 41.5559 85.6667 40.6409 85.9908C39.7037 86.3002 39.008 86.8003 38.554 87.4911L35.8078 91.6695L41.7244 95.558L44.4925 91.3462Z" fill="#F8C495"/>
<path d="M69.6422 66.5638C70.7633 67.7425 71.3 68.9065 71.2523 70.0559C71.2056 71.1676 70.8248 72.0634 70.1099 72.7434L63.2409 79.2769C63.7555 79.818 64.5062 79.9688 65.493 79.7294C66.4798 79.4901 67.2921 79.0671 67.9297 78.4606C69.0504 77.3947 69.8193 76.4426 70.2364 75.6042L70.4449 75.185C70.7065 74.5314 70.9918 74.0576 71.301 73.7635C71.9193 73.1754 72.8642 73.1047 74.1356 73.5515C74.883 73.8343 75.4313 74.1593 75.7805 74.5264C77.4162 76.2461 76.1762 79.0632 72.0606 82.9778C70.6307 84.3378 69.1257 85.3092 67.5456 85.8921C65.9664 86.4373 64.4817 86.5982 63.0915 86.3748C60.3855 85.9675 58.1136 84.7978 56.2758 82.8656C53.9601 80.431 52.8957 77.7448 53.0824 74.8069C53.27 71.8314 54.5425 69.2226 56.8998 66.9804C59.5856 64.4258 62.457 63.498 65.514 64.197C67.1267 64.5769 68.5027 65.3658 69.6422 66.5638ZM64.3262 73.2211C65.0604 72.5227 65.1335 71.8644 64.5454 71.2461C64.1227 70.8016 63.6088 70.6096 63.0037 70.6699C62.4179 70.7118 61.8062 71.036 61.1686 71.6425C60.5502 72.2306 60.18 73.0796 60.058 74.1894C59.9175 75.2799 60.1229 76.1149 60.6743 76.6946L64.3262 73.2211Z" fill="#F8C495"/>
<path d="M81.2814 49.8419C81.7957 49.7083 82.2946 49.726 82.7782 49.8949C83.2702 50.0271 83.7429 50.4547 84.1962 51.1777C84.6494 51.9006 84.9306 52.826 85.0396 53.9537C85.1485 55.0814 84.7963 55.9002 83.983 56.4101C83.5763 56.6651 83.1242 56.8226 82.6268 56.8826C82.152 56.9285 81.6096 57.1427 80.9996 57.5251C80.3895 57.9076 79.948 58.4834 79.6749 59.2527C79.4243 60.0077 79.4903 60.6903 79.8728 61.3003L84.3347 68.4173C84.6605 68.9369 84.8858 69.3465 85.0105 69.6459C85.1438 69.9086 85.2262 70.2661 85.258 70.7183C85.2873 71.5182 84.5903 72.3644 83.1669 73.2567C82.0824 73.9367 81.1826 74.2333 80.4673 74.1467C79.9075 74.057 79.3996 73.6987 78.9436 73.0718C78.802 72.8459 78.5966 72.5183 78.3275 72.089L70.8697 60.1935C70.5439 59.6738 70.3144 59.2827 70.1812 59.02C70.0564 58.7205 69.9739 58.3631 69.9338 57.9476C69.8676 57.1393 70.5576 56.2818 72.0035 55.3753C73.3592 54.5254 74.3693 54.254 75.034 54.5612C75.5092 54.7669 75.8672 55.0618 76.108 55.4459C76.1218 55.2169 76.1595 54.9257 76.2212 54.5723C76.3055 54.2047 76.5775 53.6093 77.0371 52.7861C77.4967 51.9629 77.9863 51.3884 78.5059 51.0626C79.0482 50.7227 79.5213 50.4733 79.9253 50.3144C80.3151 50.133 80.7672 49.9754 81.2814 49.8419Z" fill="#F8C495"/>
<path d="M99.7147 41.43C101.424 40.748 102.614 40.8182 103.287 41.6407C103.624 42.052 103.945 42.6415 104.252 43.4093C104.558 44.177 104.718 44.8308 104.733 45.3706C104.762 45.8757 104.643 46.2965 104.375 46.633C103.974 47.1378 103.278 47.5879 102.287 47.9833L99.8502 48.7837L103.824 58.74C104.2 59.6811 104.358 60.4364 104.298 61.0058C104.253 61.5406 104.012 61.9811 103.576 62.3274C103.165 62.6638 102.575 62.9852 101.808 63.2917C101.04 63.5981 100.391 63.7709 99.8611 63.8101C99.3461 63.8147 98.9204 63.6832 98.5839 63.4155C98.2374 63.1231 97.9802 62.8382 97.812 62.5607C97.6686 62.2734 97.4833 61.8449 97.2559 61.2753L93.3266 51.4305L91.9892 51.9642C91.3255 52.1717 90.808 52.206 90.4367 52.0671C89.7783 51.7843 89.1822 50.9742 88.6485 49.6368C87.8379 47.6059 88.1632 46.2989 89.6245 45.7157L90.8504 45.2263L90.0646 43.2574C89.3034 41.3503 89.2975 39.3572 90.0468 37.278C90.7862 35.174 92.4438 33.608 95.0196 32.5799C95.5892 32.3526 96.0201 32.2093 96.3124 32.1501C96.6194 32.0563 96.9983 32.0343 97.4489 32.0841C98.2461 32.1392 98.961 32.9593 99.5936 34.5443C100.068 35.7332 100.199 36.6716 99.9852 37.3598C99.7966 37.8944 99.3407 38.3348 98.6175 38.6809C98.3946 38.7699 98.0478 38.9083 97.5772 39.0961C96.6609 39.4618 96.3262 39.9543 96.5734 40.5734L97.3889 42.6167L99.7147 41.43Z" fill="#F8C495"/>
<path d="M129.624 42.6423C129.921 44.2417 129.735 45.5101 129.068 46.4474C128.423 47.3536 127.615 47.8967 126.645 48.0765L117.324 49.8049C117.46 50.539 118.007 51.075 118.964 51.4127C119.922 51.7505 120.833 51.8391 121.699 51.6787C123.219 51.3967 124.383 51.0182 125.19 50.5431L125.594 50.3056C126.169 49.9005 126.667 49.659 127.087 49.5812C127.926 49.4256 128.756 49.8819 129.578 50.95C130.05 51.5947 130.332 52.1661 130.425 52.6643C130.857 54.9979 128.281 56.6824 122.696 57.718C120.756 58.0778 118.965 58.0709 117.323 57.6974C115.702 57.2928 114.37 56.6177 113.326 55.672C111.281 53.8545 110.015 51.6348 109.529 49.0128C108.916 45.7091 109.489 42.8771 111.249 40.5168C113.029 38.1255 115.519 36.6332 118.718 36.0401C122.362 35.3643 125.275 36.1532 127.455 38.4067C128.6 39.6048 129.323 41.0167 129.624 42.6423ZM121.537 45.3216C122.533 45.1369 122.954 44.625 122.798 43.7859C122.686 43.1829 122.36 42.7416 121.82 42.462C121.307 42.1776 120.617 42.1156 119.752 42.276C118.913 42.4316 118.139 42.9412 117.432 43.8047C116.719 44.6419 116.436 45.4539 116.581 46.2405L121.537 45.3216Z" fill="#F8C495"/>
<path d="M141.393 45.0505C141.368 46.1703 141.723 47.0582 142.455 47.7142C143.188 48.3436 143.968 48.6673 144.795 48.6852C145.648 48.7038 146.439 48.4809 147.17 48.0166C147.927 47.5263 148.533 47.286 148.986 47.2959C149.786 47.3133 150.743 48.0409 151.859 49.4788C152.455 50.2652 152.747 50.9651 152.734 51.5783C152.712 52.5914 151.958 53.5219 150.473 54.3698C148.93 55.4033 147.052 55.8959 144.839 55.8479C142.36 55.794 139.993 54.8491 137.739 53.0131C136.664 52.1362 135.796 50.9838 135.133 49.5557C134.471 48.101 134.159 46.5205 134.196 44.8142C134.234 43.0813 134.614 41.5292 135.337 40.1579C136.061 38.76 136.979 37.6463 138.091 36.8169C140.342 35.1054 142.72 34.2768 145.226 34.3312C146.239 34.3532 147.223 34.5213 148.176 34.8354C149.13 35.1228 149.831 35.4048 150.278 35.6812L150.909 36.095C151.382 36.4254 151.75 36.6867 152.013 36.8791C152.694 37.4274 153.027 38.0481 153.012 38.7413C152.998 39.4078 152.701 40.1615 152.123 41.0025C151.131 42.448 150.196 43.1612 149.316 43.1421C148.809 43.1311 148.096 42.8222 147.176 42.2154C146.706 41.7518 146.017 41.5101 145.111 41.4904C144.231 41.4713 143.398 41.7733 142.611 42.3963C141.824 43.0194 141.418 43.9041 141.393 45.0505Z" fill="#F8C495"/>
<path d="M169.366 44.956L166.853 44.2709L165.731 49.6757C165.584 50.3807 165.583 50.9115 165.727 51.2682C165.897 51.6303 166.282 51.8737 166.883 51.9983C167.509 52.1284 167.974 52.2521 168.276 52.3693C168.61 52.4659 168.939 52.6566 169.261 52.9413C169.791 53.4054 169.91 54.3424 169.617 55.7524C169.275 57.3973 168.701 58.3267 167.894 58.5404C167.465 58.6419 167.088 58.6862 166.764 58.6734C166.471 58.6399 166.037 58.5635 165.463 58.4443C162.748 57.8806 160.812 56.8389 159.657 55.319C158.502 53.7991 158.228 51.5771 158.835 48.6527L160.038 42.8563C159.526 42.8317 158.982 42.7597 158.408 42.6405C157.833 42.5212 157.396 42.199 157.097 41.6739C156.824 41.1541 156.798 40.359 157.02 39.2885C157.242 38.2179 157.468 37.4612 157.696 37.0184C157.929 36.5494 158.185 36.2348 158.464 36.0747C158.952 35.822 159.509 35.7607 160.136 35.8908L161.396 36.3157L162.233 32.2817C162.358 31.6812 162.463 31.24 162.549 30.9582C162.661 30.6819 162.856 30.3957 163.135 30.0996C163.61 29.5173 164.683 29.3996 166.354 29.7465C168.13 30.115 169.087 30.8176 169.226 31.8541C169.27 32.299 169.197 32.9783 169.007 33.8922L168.21 37.7304C169.381 37.8644 170.253 37.991 170.828 38.1103C171.428 38.2349 171.867 38.3532 172.143 38.465C172.451 38.5562 172.779 38.7468 173.128 39.037C173.736 39.5174 173.867 40.5931 173.52 42.2641C173.178 43.909 172.617 44.8411 171.836 45.0603C171.407 45.1618 171.03 45.2061 170.706 45.1933C170.413 45.1598 169.967 45.0807 169.366 44.956Z" fill="#F8C495"/>
<path d="M203.722 55.5872L209.777 59.1784C210.988 59.9589 211.555 60.7289 211.476 61.4885C211.447 62.0603 211.181 62.7705 210.678 63.6191L206.189 71.188C205.753 71.922 205.017 72.4311 203.98 72.7153C200.87 73.5681 197.389 72.8518 193.535 70.5664C190.118 68.5395 187.91 65.4935 186.91 61.4283C185.924 57.3402 186.513 53.4727 188.676 49.8259C190.839 46.179 193.926 43.9018 197.936 42.9941C201.961 42.0636 205.716 42.6321 209.202 44.6998C211.909 46.305 213.936 48.7163 215.283 51.9336C215.63 52.7597 215.634 53.4594 215.294 54.0328C214.967 54.5832 214.322 55.069 213.36 55.4901C211.744 56.1752 210.569 56.3 209.835 55.8647C209.4 55.6063 208.884 54.8817 208.288 53.6911C207.705 52.4776 206.749 51.4763 205.419 50.6873C203.676 49.6535 201.76 49.3545 199.672 49.7905C197.598 50.2035 195.969 51.4077 194.786 53.4031C193.616 55.3756 193.304 57.4695 193.85 59.6848C194.41 61.8772 195.562 63.4903 197.305 64.5241C198.567 65.2723 199.824 65.7393 201.078 65.925L203.303 62.1749L200.585 60.5629C199.874 60.1412 199.423 59.7502 199.234 59.3899C199.045 59.0295 199.006 58.6502 199.119 58.2517C199.244 57.8303 199.484 57.3214 199.838 56.7251C200.205 56.1058 200.544 55.6399 200.853 55.3274C201.185 55.0284 201.53 54.8917 201.887 54.9174C202.422 54.9558 203.034 55.1791 203.722 55.5872Z" fill="#F8C495"/>
<path d="M217.679 65.8412C218.086 65.3828 218.398 65.0529 218.612 64.8514C218.865 64.6477 219.194 64.4584 219.599 64.2835C220.339 64.0134 221.346 64.4453 222.622 65.5793C223.578 66.4297 224.105 67.2016 224.203 67.8947C224.293 68.4749 224.092 69.0629 223.598 69.6585C223.441 69.8756 223.194 70.1734 222.857 70.552L213.555 81.0149C213.148 81.4733 212.818 81.8043 212.565 82.008C212.35 82.2095 212.03 82.3889 211.605 82.5461C210.885 82.8339 209.888 82.4108 208.612 81.2769C207.357 80.1606 206.829 79.2094 207.028 78.4233C207.154 78.0003 207.295 77.6615 207.45 77.4068C207.625 77.1699 207.925 76.8123 208.35 76.334L217.679 65.8412ZM227.498 64.6695C227.111 64.8245 226.674 64.7935 226.189 64.5764C225.704 64.3593 225.143 63.9673 224.505 63.4003C223.888 62.8511 223.443 62.3483 223.17 61.8921C222.898 61.4359 222.815 60.9874 222.921 60.5467C223.047 60.1238 223.188 59.785 223.343 59.5303C223.536 59.2734 223.836 58.9158 224.243 58.4574C224.651 57.9991 224.962 57.6691 225.177 57.4676C225.429 57.2639 225.749 57.0846 226.137 56.9296C226.894 56.6395 227.911 57.0615 229.186 58.1955C230.442 59.3117 230.96 60.2541 230.741 61.0225C230.634 61.4632 230.485 61.812 230.292 62.0688C230.137 62.3235 229.856 62.68 229.448 63.1384C229.041 63.5967 228.711 63.9278 228.458 64.1315C228.243 64.333 227.923 64.5123 227.498 64.6695Z" fill="#F8C495"/>
<path d="M237.926 81.9082C239.111 83.3156 239.42 84.468 238.851 85.3655C238.566 85.8143 238.108 86.305 237.476 86.8375C236.843 87.37 236.273 87.7281 235.766 87.9117C235.295 88.0986 234.858 88.1179 234.455 87.9698C233.849 87.7476 233.203 87.2286 232.516 86.4127L230.989 84.3516L222.79 91.2574C222.015 91.9101 221.347 92.2978 220.788 92.4202C220.266 92.5458 219.773 92.4562 219.307 92.1514C218.858 91.8669 218.367 91.4085 217.835 90.7762C217.302 90.144 216.934 89.5825 216.73 89.0919C216.563 88.6045 216.554 88.159 216.702 87.7553C216.871 87.3345 217.06 87.0006 217.271 86.7537C217.498 86.5271 217.847 86.2163 218.316 85.8212L226.423 78.9927L225.496 77.8913C225.09 77.3267 224.894 76.8463 224.909 76.4501C224.971 75.7362 225.552 74.9154 226.653 73.9878C228.326 72.5792 229.669 72.4765 230.682 73.6799L231.533 74.6895L233.154 73.3238C234.725 72.0011 236.615 71.3681 238.824 71.4248C241.054 71.4644 243.062 72.5448 244.848 74.666C245.244 75.1351 245.515 75.499 245.663 75.7577C245.849 76.0197 245.989 76.3723 246.084 76.8157C246.282 77.5897 245.729 78.5264 244.424 79.6259C243.445 80.4504 242.595 80.8697 241.875 80.8837C241.308 80.873 240.746 80.5789 240.19 80.0014C240.036 79.8178 239.795 79.5323 239.469 79.1448C238.833 78.3901 238.26 78.2275 237.75 78.6569L236.068 80.0742L237.926 81.9082Z" fill="#F8C495"/>
<path d="M242.836 102.604L241.669 100.275L236.896 103.046C236.273 103.408 235.877 103.761 235.707 104.106C235.551 104.475 235.627 104.924 235.935 105.454C236.256 106.008 236.474 106.436 236.589 106.74C236.74 107.053 236.817 107.425 236.82 107.855C236.828 108.559 236.209 109.273 234.964 109.996C233.511 110.839 232.436 111.032 231.738 110.574C231.376 110.322 231.091 110.071 230.884 109.821C230.714 109.58 230.481 109.206 230.187 108.699C228.794 106.301 228.279 104.164 228.639 102.29C229 100.415 230.472 98.7278 233.055 97.2282L238.175 94.2557C237.851 93.8577 237.542 93.4051 237.247 92.8977C236.953 92.3903 236.901 91.8499 237.092 91.2764C237.297 90.7259 237.872 90.1761 238.818 89.6272C239.763 89.0782 240.477 88.7409 240.959 88.6152C241.464 88.4761 241.869 88.4568 242.174 88.5572C242.688 88.7521 243.106 89.1263 243.427 89.6798L243.952 90.9017L247.515 88.833C248.045 88.525 248.444 88.3089 248.711 88.1847C248.991 88.0836 249.335 88.0382 249.742 88.0486C250.492 88.0137 251.296 88.7342 252.153 90.2101C253.064 91.7783 253.179 92.96 252.5 93.7552C252.198 94.0847 251.643 94.4838 250.836 94.9525L247.446 96.9207C248.128 97.8819 248.616 98.6161 248.91 99.1235C249.218 99.6539 249.423 100.059 249.524 100.34C249.661 100.63 249.738 101.001 249.755 101.455C249.803 102.228 249.089 103.043 247.613 103.9C246.16 104.744 245.092 104.948 244.407 104.513C244.045 104.261 243.761 104.01 243.554 103.76C243.384 103.519 243.144 103.134 242.836 102.604Z" fill="#F8C495"/>
</svg>
